<svg width="19" height="19" viewBox="0 0 19 19" fill="none" xmlns="http://www.w3.org/2000/svg">
<path fill-rule="evenodd" clip-rule="evenodd" d="M15.7343 2.08917H3.21068C2.9059 2.08917 2.61359 2.21024 2.39808 2.42576C2.18256 2.64127 2.06149 2.93358 2.06149 3.23836V15.762C2.06149 16.0668 2.18256 16.3591 2.39808 16.5746C2.6136 16.7901 2.9059 16.9112 3.21068 16.9112H15.7343C16.0391 16.9112 16.3314 16.7901 16.5469 16.5746C16.7625 16.3591 16.8835 16.0668 16.8835 15.762V3.23836C16.8835 2.93358 16.7625 2.64127 16.5469 2.42576C16.3314 2.21024 16.0391 2.08917 15.7343 2.08917ZM2.57735 0.306641C1.96778 0.306641 1.38317 0.548791 0.952143 0.979823C0.521112 1.41085 0.278961 1.99546 0.278961 2.60503L0.278961 16.3953C0.278961 17.0049 0.521112 17.5895 0.952143 18.0206C1.38317 18.4516 1.96778 18.6937 2.57735 18.6937H16.3677C16.9772 18.6937 17.5618 18.4516 17.9929 18.0206C18.4239 17.5895 18.6661 17.0049 18.6661 16.3953V2.60503C18.6661 1.99546 18.4239 1.41085 17.9929 0.979823C17.5618 0.548791 16.9772 0.306641 16.3677 0.306641L2.57735 0.306641Z" fill="#EBEBEB"/>
<path d="M10.5412 7.87744L7.90958 8.20726L7.81535 8.64395L8.33248 8.73934C8.67035 8.81978 8.737 8.94159 8.66345 9.27831L7.81535 13.2637C7.5924 14.2945 7.93601 14.7795 8.7439 14.7795C9.37021 14.7795 10.0976 14.4899 10.4275 14.0923L10.5286 13.6142C10.2988 13.8165 9.96319 13.8969 9.74025 13.8969C9.42422 13.8969 9.3093 13.6751 9.39089 13.2844L10.5412 7.87744Z" fill="#EBEBEB"/>
<path d="M9.47253 6.62749C10.1072 6.62749 10.6217 6.11298 10.6217 5.4783C10.6217 4.84361 10.1072 4.3291 9.47253 4.3291C8.83785 4.3291 8.32333 4.84361 8.32333 5.4783C8.32333 6.11298 8.83785 6.62749 9.47253 6.62749Z" fill="#EBEBEB"/>
</svg>
