<svg width="36" height="36" viewBox="0 0 36 36" fill="none" xmlns="http://www.w3.org/2000/svg">
<circle cx="18" cy="18" r="17" stroke="#EBEBEB" stroke-width="2"/>
<path d="M24.3 18.0001H26.1C26.1 15.8519 25.2466 13.7916 23.7276 12.2726C22.2085 10.7535 20.1483 9.90015 18 9.90015V11.7001C21.483 11.7001 24.3 14.5171 24.3 18.0001ZM20.7 18.0001H22.5C22.5 15.5161 20.484 13.5001 18 13.5001V15.3001C19.494 15.3001 20.7 16.5061 20.7 18.0001ZM19.089 22.8331C16.5341 21.5337 14.4574 19.4571 13.158 16.9021L15.435 14.6251L14.886 9.90015H9.92702C9.40502 19.0621 16.938 26.5951 26.1 26.0731V21.1141L21.357 20.5651L19.089 22.8331Z" fill="#EBEBEB"/>
</svg>
