<svg width="37" height="30" viewBox="0 0 37 30" fill="none" xmlns="http://www.w3.org/2000/svg">
<g clip-path="url(#clip0)">
<path d="M33.7965 0.887207H3.33056C1.65493 0.887207 0.283966 2.2985 0.283966 4.02341V25.9768C0.283966 27.7017 1.65493 29.113 3.33056 29.113H33.7965C35.4721 29.113 36.8279 27.7017 36.8279 25.9768L36.8431 4.02341C36.8431 2.2985 35.4721 0.887207 33.7965 0.887207ZM33.7965 25.9768H3.33056V4.02341H33.7965V25.9768ZM32.2732 5.59151H21.6101V13.432H32.2732V5.59151ZM30.7499 8.72771L26.9417 11.4719L23.1334 8.72771V7.15961L26.9417 9.90378L30.7499 7.15961V8.72771ZM13.9936 15.0001C16.5071 15.0001 18.5635 12.8832 18.5635 10.2958C18.5635 7.70844 16.5071 5.59151 13.9936 5.59151C11.4802 5.59151 9.42375 7.70844 9.42375 10.2958C9.42375 12.8832 11.4802 15.0001 13.9936 15.0001ZM13.9936 8.72771C14.8315 8.72771 15.5169 9.43335 15.5169 10.2958C15.5169 11.1583 14.8315 11.8639 13.9936 11.8639C13.1558 11.8639 12.4703 11.1583 12.4703 10.2958C12.4703 9.43335 13.1558 8.72771 13.9936 8.72771ZM23.1334 22.1977C23.1334 18.2774 17.0859 16.5839 13.9936 16.5839C10.9013 16.5839 4.85386 18.2774 4.85386 22.1977V24.4087H23.1334V22.1977ZM8.63164 21.2725C9.75888 20.4885 12.0134 19.7044 13.9936 19.7044C15.9739 19.7044 18.2132 20.4728 19.3556 21.2725H8.63164Z" fill="#EBEBEB"/>
</g>
<defs>
<clipPath id="clip0">
<rect width="36.7742" height="30" fill="white" transform="translate(0.0689697)"/>
</clipPath>
</defs>
</svg>
