<svg width="35" height="30" viewBox="0 0 35 30" fill="none" xmlns="http://www.w3.org/2000/svg">
<g clip-path="url(#clip0)">
<path d="M20.683 3.91297L23.6667 7.17384H30.2699V26.7391H4.18299V7.17384H10.7863L13.7699 3.91297H20.683ZM22.1178 0.6521H12.3352L9.35147 3.91297H4.18299C2.38951 3.91297 0.922119 5.38036 0.922119 7.17384V26.7391C0.922119 28.5325 2.38951 29.9999 4.18299 29.9999H30.2699C32.0634 29.9999 33.5308 28.5325 33.5308 26.7391V7.17384C33.5308 5.38036 32.0634 3.91297 30.2699 3.91297H25.1015L22.1178 0.6521ZM17.2265 12.0651C19.9167 12.0651 22.1178 14.2662 22.1178 16.9564C22.1178 19.6467 19.9167 21.8478 17.2265 21.8478C14.5362 21.8478 12.3352 19.6467 12.3352 16.9564C12.3352 14.2662 14.5362 12.0651 17.2265 12.0651ZM17.2265 8.80427C12.7265 8.80427 9.07429 12.4564 9.07429 16.9564C9.07429 21.4564 12.7265 25.1086 17.2265 25.1086C21.7265 25.1086 25.3786 21.4564 25.3786 16.9564C25.3786 12.4564 21.7265 8.80427 17.2265 8.80427Z" fill="#EBEBEB"/>
</g>
<defs>
<clipPath id="clip0">
<rect width="34" height="30" fill="white" transform="translate(0.0689697)"/>
</clipPath>
</defs>
</svg>
