<svg width="22" height="19" viewBox="0 0 22 19" fill="none" xmlns="http://www.w3.org/2000/svg">
<g clip-path="url(#clip0)">
<path d="M13.2908 2.4783L15.1805 4.54352H19.3626V16.9348H2.84082V4.54352H7.02289L8.91256 2.4783H13.2908V2.4783ZM14.1995 0.413086H8.00386L6.11419 2.4783H2.84082C1.70495 2.4783 0.775604 3.40765 0.775604 4.54352V16.9348C0.775604 18.0707 1.70495 19 2.84082 19H19.3626C20.4984 19 21.4278 18.0707 21.4278 16.9348V4.54352C21.4278 3.40765 20.4984 2.4783 19.3626 2.4783H16.0892L14.1995 0.413086ZM11.1017 7.64135C12.8055 7.64135 14.1995 9.03537 14.1995 10.7392C14.1995 12.443 12.8055 13.837 11.1017 13.837C9.39789 13.837 8.00386 12.443 8.00386 10.7392C8.00386 9.03537 9.39789 7.64135 11.1017 7.64135ZM11.1017 5.57613C8.25169 5.57613 5.93865 7.88917 5.93865 10.7392C5.93865 13.5892 8.25169 15.9022 11.1017 15.9022C13.9517 15.9022 16.2647 13.5892 16.2647 10.7392C16.2647 7.88917 13.9517 5.57613 11.1017 5.57613Z" fill="#EBEBEB"/>
</g>
<defs>
<clipPath id="clip0">
<rect width="21.5333" height="19" fill="white" transform="translate(0.235291)"/>
</clipPath>
</defs>
</svg>
