<svg width="22" height="19" viewBox="0 0 22 19" fill="none" xmlns="http://www.w3.org/2000/svg">
<path d="M20.3368 9.31314L11.7625 0.775844L11.1878 0.203301C11.0568 0.0737089 10.8798 0.000976563 10.6952 0.000976562C10.5106 0.000976562 10.3335 0.0737089 10.2025 0.203301L1.05357 9.31314C0.919391 9.44629 0.813346 9.60487 0.741695 9.77952C0.670045 9.95417 0.634242 10.1413 0.636399 10.33C0.645275 11.1081 1.29544 11.7293 2.07654 11.7293H3.01962V18.9292H18.3707V11.7293H19.3338C19.7132 11.7293 20.0705 11.5812 20.339 11.3137C20.4712 11.1824 20.5759 11.0263 20.6472 10.8544C20.7184 10.6825 20.7547 10.4983 20.7539 10.3123C20.7539 9.93652 20.6053 9.58062 20.3368 9.31314V9.31314ZM11.9378 17.3376H9.45252V12.828H11.9378V17.3376ZM16.773 10.1377V17.3376H13.358V12.2974C13.358 11.8089 12.9608 11.4132 12.4704 11.4132H8.91996C8.42956 11.4132 8.03236 11.8089 8.03236 12.2974V17.3376H4.6173V10.1377H2.48705L10.6974 1.96514L11.21 2.47579L18.9055 10.1377H16.773Z" fill="#EBEBEB"/>
</svg>
