<svg width="33" height="30" viewBox="0 0 33 30" fill="none" xmlns="http://www.w3.org/2000/svg">
<path d="M30.4923 14.7605L17.635 1.54561L16.7732 0.65937C16.5768 0.458774 16.3113 0.346191 16.0345 0.346191C15.7577 0.346191 15.4922 0.458774 15.2958 0.65937L1.57664 14.7605C1.37544 14.9666 1.21642 15.2121 1.10898 15.4824C1.00153 15.7527 0.947846 16.0425 0.951081 16.3345C0.964391 17.539 1.93934 18.5005 3.11061 18.5005H4.52478V29.6452H27.5442V18.5005H28.9883C29.5573 18.5005 30.093 18.2712 30.4957 17.8572C30.6939 17.654 30.851 17.4123 30.9578 17.1463C31.0646 16.8802 31.119 16.595 31.1179 16.3071C31.1179 15.7254 30.895 15.1745 30.4923 14.7605ZM17.8979 27.1815H14.1711V20.2011H17.8979V27.1815ZM25.1484 16.0368V27.1815H20.0275V19.3799C20.0275 18.6237 19.4318 18.0112 18.6965 18.0112H13.3725C12.6371 18.0112 12.0415 18.6237 12.0415 19.3799V27.1815H6.92056V16.0368H3.72619L16.0378 3.38652L16.8065 4.17695L28.3461 16.0368H25.1484Z" fill="#EBEBEB"/>
</svg>
