<svg width="30" height="30" viewBox="0 0 30 30" fill="none" xmlns="http://www.w3.org/2000/svg">
<path fill-rule="evenodd" clip-rule="evenodd" d="M24.5412 3.2984H4.76697C4.28573 3.2984 3.8242 3.48957 3.48392 3.82986C3.14363 4.17015 2.95246 4.63168 2.95246 5.11292V24.8871C2.95246 25.3684 3.14363 25.8299 3.48392 26.1702C3.8242 26.5105 4.28573 26.7016 4.76697 26.7016H24.5412C25.0224 26.7016 25.4839 26.5105 25.8242 26.1702C26.1645 25.8299 26.3557 25.3684 26.3557 24.8871V5.11292C26.3557 4.63168 26.1645 4.17015 25.8242 3.82986C25.4839 3.48957 25.0224 3.2984 24.5412 3.2984ZM3.76697 0.483887C2.80449 0.483887 1.88143 0.86623 1.20086 1.54681C0.520283 2.22738 0.137939 3.15044 0.137939 4.11292L0.137939 25.8871C0.137939 26.8496 0.520283 27.7726 1.20086 28.4532C1.88143 29.1338 2.80449 29.5161 3.76697 29.5161H25.5412C26.5036 29.5161 27.4267 29.1338 28.1073 28.4532C28.7879 27.7726 29.1702 26.8496 29.1702 25.8871V4.11292C29.1702 3.15044 28.7879 2.22738 28.1073 1.54681C27.4267 0.86623 26.5036 0.483887 25.5412 0.483887L3.76697 0.483887Z" fill="#EBEBEB"/>
<path d="M16.3415 12.4377L12.1863 12.9585L12.0375 13.648L12.854 13.7986C13.3875 13.9256 13.4927 14.118 13.3766 14.6496L12.0375 20.9424C11.6855 22.57 12.228 23.3357 13.5036 23.3357C14.4925 23.3357 15.6411 22.8785 16.1619 22.2506L16.3216 21.4958C15.9587 21.8152 15.4288 21.9422 15.0768 21.9422C14.5778 21.9422 14.3964 21.592 14.5252 20.975L16.3415 12.4377Z" fill="#EBEBEB"/>
<path d="M14.6541 10.4637C15.6562 10.4637 16.4686 9.65136 16.4686 8.64923C16.4686 7.6471 15.6562 6.83472 14.6541 6.83472C13.6519 6.83472 12.8395 7.6471 12.8395 8.64923C12.8395 9.65136 13.6519 10.4637 14.6541 10.4637Z" fill="#EBEBEB"/>
</svg>
