<svg width="128" height="92" viewBox="0 0 128 92" fill="none" xmlns="http://www.w3.org/2000/svg">
<path d="M20.8997 41.4515C21.1828 41.5889 21.4198 41.8051 21.5821 42.0738C21.7445 42.3425 21.8251 42.6522 21.8144 42.9655C21.8246 43.3943 21.729 43.8191 21.536 44.2025C21.3556 44.5527 21.1052 44.8625 20.8002 45.1129C20.4816 45.3632 20.1304 45.5696 19.7563 45.7265C19.3788 45.8856 18.9856 46.0051 18.5831 46.0827V46.1124C18.9009 46.1552 19.2138 46.2281 19.5177 46.3301C19.8274 46.4316 20.1218 46.5748 20.3926 46.7557C20.6683 46.9361 20.8995 47.1763 21.0687 47.4583C21.2436 47.7586 21.333 48.1007 21.3272 48.4478C21.3426 48.9938 21.2012 49.5328 20.9195 50.0015C20.6725 50.4354 20.3331 50.8103 19.9253 51.1C19.4812 51.3922 18.9951 51.6157 18.4837 51.763C17.9686 51.9045 17.4371 51.9777 16.9028 51.9807H11.4444L11.5637 51.4661L12.1305 51.3968C12.3133 51.3774 12.4934 51.3376 12.6674 51.2781C12.8277 51.2125 12.9706 51.1109 13.0849 50.9812C13.1878 50.8432 13.259 50.6845 13.2937 50.5161L15.153 42.5103V42.352C15.1579 42.3026 15.1579 42.2529 15.153 42.2035C15.1573 42.1033 15.1332 42.0038 15.0834 41.9166C15.0298 41.8261 14.9501 41.7537 14.8547 41.7087C14.7039 41.6292 14.5435 41.5694 14.3774 41.5306C14.2206 41.4945 14.0609 41.4713 13.9002 41.4614L14.0295 40.9468H18.9211C19.2545 40.9476 19.5872 40.9774 19.9154 41.0358C20.2655 41.1155 20.5988 41.2562 20.8997 41.4515ZM18.7322 50.3578C18.957 50.0578 19.1316 49.7236 19.2492 49.3682C19.3572 49.0219 19.4141 48.6619 19.4182 48.2994C19.4312 48.0515 19.3869 47.8039 19.2886 47.5758C19.1904 47.3476 19.0408 47.1449 18.8515 46.9833C18.3982 46.6427 17.8376 46.4743 17.2707 46.5083H16.4256H15.8986L15.0138 50.3182C15.0099 50.3874 15.0099 50.4568 15.0138 50.526C15.0088 50.5853 15.0088 50.6449 15.0138 50.7041C15.0116 50.8331 15.0509 50.9594 15.1261 51.0644C15.2012 51.1695 15.3082 51.2478 15.4313 51.288C15.7668 51.4181 16.1254 51.4788 16.4852 51.4661C16.9634 51.4781 17.4363 51.3655 17.8573 51.1395C18.2024 50.9493 18.5011 50.6858 18.7322 50.3676V50.3578ZM19.2492 45.0239C19.4804 44.7558 19.6592 44.447 19.7762 44.1135C19.8842 43.7641 19.9378 43.4003 19.9353 43.0348C19.9433 42.7921 19.8921 42.551 19.7861 42.3322C19.6916 42.1482 19.5513 41.9915 19.3785 41.877C19.2011 41.7661 19.0061 41.6858 18.8018 41.6395C18.5854 41.5992 18.3657 41.5793 18.1456 41.5801H17.569H17.0321L16.0378 45.8749H17.0321C17.4856 45.8885 17.9368 45.8041 18.3544 45.6275C18.6947 45.5009 19.0009 45.2977 19.2492 45.0338V45.0239Z" fill="#CC2222"/>
<path d="M21.9436 52.05L22.053 51.5354L22.6097 51.4859C22.7832 51.4816 22.9546 51.4481 23.1168 51.387C23.2859 51.338 23.4353 51.2377 23.5443 51.1C23.6493 50.9558 23.7206 50.7902 23.7531 50.6151L25.6223 42.5796C25.6264 42.5369 25.6264 42.4938 25.6223 42.451C25.6272 42.4049 25.6272 42.3585 25.6223 42.3125C25.6274 42.209 25.6033 42.1061 25.5527 42.0156C25.4986 41.9195 25.415 41.8432 25.3141 41.7979C25.1668 41.7185 25.0097 41.6586 24.8468 41.6197C24.6841 41.5752 24.5177 41.5454 24.3497 41.5307L24.469 41.0161H29.0524L28.9331 41.5307C28.7455 41.5334 28.5588 41.5567 28.3763 41.6L27.8693 41.7088C27.6876 41.7595 27.5315 41.876 27.4318 42.0354C27.3396 42.1781 27.2724 42.3354 27.233 42.5005L25.6819 49.1406L32.582 42.6192C32.5791 42.5698 32.5791 42.5202 32.582 42.4708C32.5864 42.4115 32.5864 42.352 32.582 42.2927C32.5851 42.1894 32.5611 42.087 32.5124 41.9958C32.4583 41.8997 32.3747 41.8234 32.2738 41.7781C32.1154 41.7048 31.9484 41.6516 31.7766 41.6197C31.6066 41.5781 31.4338 41.5484 31.2596 41.5307L31.369 41.0161H35.9624L35.8431 41.5307C35.6588 41.5341 35.4755 41.5573 35.2962 41.6L34.7991 41.7088C34.6191 41.7628 34.4641 41.8785 34.3617 42.0354C34.2735 42.1802 34.2065 42.3368 34.1628 42.5005L32.4229 50.526V50.6646C32.4229 50.724 32.4229 50.7635 32.4229 50.8031C32.4231 50.9041 32.4506 51.0033 32.5024 51.0901C32.5562 51.1821 32.6312 51.2602 32.7212 51.3177C32.8583 51.3789 33.0016 51.4253 33.1487 51.4563C33.3217 51.4977 33.498 51.5242 33.6756 51.5354L33.5563 52.05H28.9729L29.0922 51.5354L29.6589 51.4859C29.8323 51.4816 30.0037 51.4481 30.166 51.387C30.335 51.338 30.4845 51.2377 30.5935 51.1C30.6984 50.9558 30.7698 50.7902 30.8023 50.6151L32.403 43.8068L25.493 50.338C25.4687 50.4154 25.452 50.4949 25.4433 50.5755C25.4361 50.6479 25.4361 50.7209 25.4433 50.7932C25.4439 50.8993 25.4677 51.004 25.5129 51.1C25.5683 51.1987 25.6561 51.2756 25.7615 51.3177C25.9117 51.3808 26.0684 51.4272 26.2288 51.4563C26.4029 51.4921 26.5788 51.5186 26.7557 51.5354L26.6364 52.05H21.9436Z" fill="#CC2222"/>
<path d="M44.9404 48.2005C44.9545 48.7685 44.8276 49.3312 44.5709 49.8387C44.3142 50.3462 43.9357 50.7828 43.4689 51.1099C43.0096 51.4374 42.4941 51.6788 41.9478 51.8224C41.3706 51.976 40.7755 52.0525 40.178 52.05H34.998L35.1173 51.5354L35.694 51.4563C35.8669 51.4354 36.0369 51.3956 36.2011 51.3375C36.3723 51.277 36.5236 51.1709 36.6385 51.0307C36.7461 50.8993 36.818 50.7426 36.8473 50.5755L38.7065 42.5796C38.7065 42.5302 38.7065 42.4906 38.7065 42.451C38.7065 42.4114 38.7065 42.362 38.7065 42.3125C38.7091 42.2135 38.6887 42.1153 38.6469 42.0255C38.5991 41.9291 38.5228 41.8497 38.4281 41.7979C38.2744 41.7076 38.1063 41.644 37.931 41.6099C37.7706 41.5726 37.6079 41.5461 37.4439 41.5307L37.5632 41.0161H45.8651L45.2089 43.8265H44.6123C44.5821 43.3262 44.4679 42.8345 44.2743 42.3718C44.2184 42.1901 44.1139 42.0269 43.9721 41.8997C43.8302 41.7724 43.6563 41.6859 43.4689 41.6494L42.9122 41.6H40.5658L39.5715 45.7167H40.2277H41.0331C41.5365 45.7122 42.0391 45.7552 42.5344 45.8453C42.9638 45.9206 43.3773 46.0678 43.7573 46.2807C44.0955 46.4661 44.3798 46.7354 44.5825 47.0625C44.8064 47.401 44.9304 47.7953 44.9404 48.2005ZM43.0215 48.2005C43.038 47.9363 42.9927 47.6719 42.8892 47.4281C42.7857 47.1843 42.6268 46.9677 42.425 46.7953C41.9078 46.4377 41.2834 46.2667 40.6552 46.3104C40.347 46.3104 40.1084 46.3104 39.9195 46.3104H39.492L38.4977 50.4271C38.4977 50.4271 38.4977 50.5162 38.4977 50.5755C38.4977 50.6349 38.4977 50.6745 38.4977 50.724C38.4949 50.8338 38.5232 50.9422 38.5795 51.0368C38.6358 51.1313 38.7177 51.2081 38.8159 51.2584C39.1487 51.4098 39.5148 51.4745 39.8797 51.4464C40.3702 51.4568 40.8566 51.3552 41.3015 51.1495C41.6882 50.9629 42.028 50.6924 42.2957 50.3578C42.5363 50.0634 42.7215 49.7281 42.8426 49.3682C42.9652 48.9912 43.0256 48.5968 43.0215 48.2005Z" fill="#CC2222"/>
<path d="M55.9566 43.2326C55.9673 43.82 55.8234 44.4001 55.539 44.9149C55.2723 45.3949 54.9063 45.8131 54.4652 46.142C54.0028 46.4901 53.4806 46.7517 52.9241 46.9139C52.3449 47.0939 51.7413 47.184 51.1345 47.1811H49.7824L48.9969 50.5852V50.7337V50.8623C48.9947 50.9676 49.015 51.0722 49.0566 51.1691C49.1103 51.2669 49.199 51.3411 49.3051 51.3769C49.4589 51.4316 49.6195 51.4649 49.7824 51.4759L50.4187 51.5353L50.3192 52.0498H45.5568L45.6761 51.5353L46.2329 51.4759C46.4088 51.4652 46.5826 51.4319 46.7499 51.3769C46.9217 51.3176 47.071 51.207 47.1774 51.0603C47.2754 50.917 47.3431 50.7554 47.3763 50.5852L49.2455 42.5399V42.3914C49.2455 42.3321 49.2455 42.2727 49.2455 42.2232C49.2486 42.1199 49.2246 42.0176 49.1759 41.9263C49.1272 41.8342 49.0456 41.7636 48.9472 41.7284C48.7728 41.666 48.5931 41.6196 48.4103 41.5899L47.9032 41.5305L48.0126 41.0159H52.9838C53.7539 40.9838 54.515 41.1914 55.1612 41.6097C55.4193 41.7927 55.6273 42.037 55.7662 42.3205C55.9051 42.6039 55.9706 42.9175 55.9566 43.2326ZM53.461 45.3404C53.667 45.039 53.8184 44.7041 53.9084 44.3508C53.9975 44.0283 54.0443 43.6957 54.0476 43.3613C54.046 43.1334 54.0126 42.907 53.9482 42.6883C53.8813 42.4737 53.7656 42.2773 53.6102 42.1144C53.4456 41.9373 53.2412 41.8016 53.0136 41.7185C52.7175 41.6116 52.4038 41.5613 52.089 41.5701H51.0947L49.9613 46.518H50.8462C51.3819 46.5316 51.9142 46.4303 52.4071 46.2212C52.8328 46.029 53.1973 45.7244 53.461 45.3404Z" fill="#CC2222"/>
<path d="M67.0026 45.2612C67.0098 46.2152 66.8238 47.161 66.4558 48.0419C66.1142 48.8623 65.6295 49.6161 65.0241 50.2685C64.4346 50.8865 63.7373 51.3928 62.966 51.7628C62.2151 52.1213 61.3928 52.3074 60.5599 52.3071C59.9805 52.3316 59.4024 52.2331 58.8641 52.0182C58.3258 51.8032 57.8397 51.4766 57.438 51.0602C56.6298 50.1866 56.201 49.0307 56.2449 47.844C56.24 46.8837 56.4258 45.932 56.7918 45.0435C57.1362 44.2239 57.6169 43.4678 58.2135 42.807C58.7942 42.1765 59.4934 41.6655 60.2716 41.3028C61.0258 40.9423 61.851 40.753 62.6876 40.7486C63.2635 40.7267 63.8377 40.8244 64.3735 41.0357C64.9094 41.247 65.3951 41.5672 65.7996 41.9757C66.2115 42.4149 66.5303 42.9321 66.737 43.4966C66.9437 44.0611 67.0341 44.6612 67.0026 45.2612ZM64.0199 49.4075C64.4056 48.7251 64.6934 47.9923 64.8749 47.2305C65.0639 46.4359 65.1606 45.6224 65.1633 44.806C65.2074 43.9304 64.9782 43.0628 64.5071 42.3221C64.2816 42.0131 63.9806 41.7664 63.6327 41.6054C63.2848 41.4444 62.9013 41.3743 62.5186 41.4018C61.8519 41.4022 61.2019 41.6097 60.6594 41.9955C60.0316 42.45 59.5179 43.0427 59.1581 43.7273C58.7787 44.42 58.5008 45.1631 58.3328 45.9341C58.1531 46.6764 58.0597 47.4367 58.0545 48.2002C58.0022 49.098 58.239 49.9889 58.7305 50.7435C58.9504 51.0432 59.242 51.2835 59.5788 51.4425C59.9157 51.6015 60.2871 51.6742 60.6594 51.6539C61.355 51.6612 62.0334 51.4384 62.5882 51.0206C63.1745 50.5896 63.6625 50.0398 64.0199 49.4075Z" fill="#CC2222"/>
<path d="M79.2914 45.8159C79.2876 46.3902 79.1832 46.9594 78.9832 47.4981C78.7683 48.0497 78.428 48.5442 77.9889 48.9429C77.5022 49.3829 76.9305 49.7196 76.3087 49.9325C75.5085 50.2001 74.6669 50.3241 73.8231 50.2987H73.5148L73.4154 50.6945C73.4108 50.7802 73.4108 50.8661 73.4154 50.9518C73.416 51.0497 73.4435 51.1455 73.495 51.2289C73.5575 51.3168 73.6437 51.3853 73.7435 51.4268C73.892 51.4742 74.0454 51.5041 74.2009 51.5159L74.8472 51.5752L74.7278 52.0799H70.0052L70.1245 51.5752L70.6713 51.5159C70.8468 51.5084 71.0205 51.4784 71.1883 51.4268C71.3521 51.3671 71.4989 51.2686 71.6159 51.1398C71.7184 51.0102 71.7868 50.8571 71.8147 50.6945L71.9141 50.2987C70.8516 50.3742 69.7962 50.0765 68.9314 49.4575C68.5829 49.1765 68.3059 48.8177 68.1228 48.4103C67.9397 48.0028 67.8556 47.5581 67.8775 47.1122C67.872 46.5338 67.9766 45.9596 68.1857 45.42C68.4035 44.8728 68.7435 44.3821 69.18 43.9851C69.6703 43.5397 70.2497 43.2025 70.8801 42.9955C71.6763 42.7236 72.5142 42.593 73.3558 42.6096H73.664C73.664 42.4809 73.7236 42.382 73.7336 42.3127C73.739 42.2435 73.739 42.1741 73.7336 42.1049C73.7373 42.0034 73.7095 41.9032 73.6541 41.8179C73.5888 41.7416 73.5073 41.6807 73.4154 41.6398C73.2606 41.5663 73.0968 41.5131 72.9282 41.4815C72.7616 41.4416 72.5921 41.4152 72.4212 41.4023L72.5405 40.8877H77.1637L77.0444 41.4023C76.8657 41.389 76.6862 41.389 76.5075 41.4023C76.3221 41.4204 76.1389 41.4569 75.9607 41.5111C75.787 41.5615 75.6338 41.6655 75.5232 41.808C75.4352 41.9423 75.3681 42.0891 75.3244 42.2434L75.2548 42.57C76.3207 42.4906 77.3796 42.7963 78.2375 43.4309C78.5904 43.717 78.87 44.0824 79.0532 44.497C79.2364 44.9116 79.3181 45.3637 79.2914 45.8159ZM73.5447 43.2033H73.0277C72.495 43.1897 71.9699 43.3307 71.5164 43.6091C71.1023 43.8621 70.7466 44.1993 70.4725 44.5987C70.209 45.0029 70.0142 45.4476 69.8958 45.9148C69.7723 46.3664 69.7088 46.8322 69.7069 47.3002C69.7028 47.5789 69.7261 47.8573 69.7765 48.1315C69.8447 48.4112 69.9699 48.6739 70.1444 48.9034C70.3325 49.1562 70.5823 49.3572 70.8702 49.4872C71.2359 49.6491 71.6334 49.7269 72.0334 49.7148L73.5447 43.2033ZM76.7362 48.3195C76.9905 47.9187 77.1817 47.4815 77.3029 47.0232C77.4323 46.5624 77.4992 46.0864 77.5018 45.608C77.501 45.3351 77.471 45.0631 77.4123 44.7966C77.3592 44.5125 77.24 44.2448 77.0643 44.0148C76.878 43.7681 76.6362 43.5681 76.3584 43.4309C75.9863 43.2671 75.5818 43.1893 75.1752 43.2033L73.664 49.7544H74.181C74.7167 49.7677 75.2449 49.6268 75.7022 49.3487C76.1196 49.0866 76.4729 48.735 76.7362 48.3195Z" fill="#767676"/>
<path d="M90.9539 45.2612C90.961 46.2152 90.7751 47.161 90.4071 48.0419C90.0655 48.8623 89.5808 49.6161 88.9753 50.2685C88.3822 50.8867 87.6816 51.3929 86.9073 51.7628C86.1603 52.1225 85.341 52.3086 84.5112 52.3071C83.9317 52.3316 83.3536 52.2331 82.8153 52.0182C82.2771 51.8032 81.7909 51.4766 81.3893 51.0602C80.581 50.1866 80.1522 49.0307 80.1962 47.844C80.1863 46.8833 80.3724 45.9306 80.743 45.0435C81.0835 44.2218 81.5646 43.4651 82.1648 42.807C82.7454 42.1765 83.4446 41.6655 84.2229 41.3028C84.977 40.9423 85.8022 40.753 86.6389 40.7486C87.2148 40.7267 87.789 40.8244 88.3248 41.0357C88.8606 41.247 89.3463 41.5672 89.7509 41.9757C90.1628 42.4149 90.4816 42.9321 90.6883 43.4966C90.895 44.0611 90.9853 44.6612 90.9539 45.2612ZM87.9712 49.4075C88.3577 48.7266 88.6424 47.9932 88.8163 47.2305C89.0133 46.4372 89.1134 45.6231 89.1145 44.806C89.1604 43.9289 88.9273 43.0597 88.4484 42.3221C88.2249 42.011 87.9243 41.7627 87.5759 41.6015C87.2274 41.4402 86.843 41.3714 86.4599 41.4018C85.7932 41.4022 85.1432 41.6097 84.6007 41.9955C83.9712 42.4482 83.457 43.0413 83.0994 43.7273C82.72 44.42 82.4421 45.1631 82.2742 45.9341C82.0945 46.6764 82.001 47.4367 81.9958 48.2002C81.9385 49.0985 82.1758 49.991 82.6719 50.7435C82.8917 51.0432 83.1833 51.2835 83.5201 51.4425C83.857 51.6015 84.2284 51.6742 84.6007 51.6539C85.2935 51.6628 85.9693 51.4397 86.5196 51.0206C87.1125 50.591 87.6072 50.0413 87.9712 49.4075Z" fill="#767676"/>
<path d="M101.354 43.2328C101.364 43.8202 101.22 44.4002 100.936 44.9151C100.663 45.3933 100.294 45.8109 99.8523 46.1422C99.3911 46.4922 98.8685 46.754 98.3112 46.914C97.7353 47.0934 97.135 47.1835 96.5316 47.1812H95.1794L94.384 50.5854C94.3785 50.6347 94.3785 50.6845 94.384 50.7339C94.3795 50.7766 94.3795 50.8197 94.384 50.8625C94.3818 50.9678 94.4021 51.0724 94.4437 51.1693C94.4996 51.2653 94.5875 51.3389 94.6922 51.3771C94.846 51.4317 95.0065 51.465 95.1694 51.4761L95.8058 51.5354L95.6865 52.05H90.924L91.0433 51.5354L91.6001 51.4761C91.7792 51.4651 91.9563 51.4319 92.1271 51.3771C92.2975 51.3203 92.4443 51.2089 92.5447 51.0604C92.6459 50.9178 92.717 50.7562 92.7534 50.5854L94.6127 42.5401V42.3916C94.6175 42.3356 94.6175 42.2794 94.6127 42.2234C94.6141 42.1214 94.5937 42.0202 94.553 41.9265C94.5028 41.8318 94.4171 41.7606 94.3144 41.7286C94.1438 41.665 93.9673 41.6186 93.7875 41.59L93.2705 41.5307L93.3898 41.0161H98.361C99.1315 40.9806 99.8936 41.1884 100.538 41.6099C100.799 41.7912 101.011 42.0347 101.153 42.3182C101.296 42.6017 101.364 42.916 101.354 43.2328ZM98.8481 45.3406C99.0606 45.0416 99.2156 44.7061 99.3055 44.351C99.3915 44.0281 99.435 43.6955 99.4347 43.3614C99.4381 43.1333 99.4045 42.9061 99.3353 42.6885C99.2787 42.4898 99.1766 42.3069 99.037 42.1541C98.8669 41.9791 98.6597 41.8438 98.4306 41.7583C98.135 41.6495 97.8209 41.5991 97.5059 41.6099H96.5117L95.3782 46.5578H96.2631C96.7988 46.5713 97.3311 46.4701 97.8241 46.2609C98.2455 46.056 98.6005 45.7371 98.8481 45.3406Z" fill="#767676"/>
<path d="M116.556 41.0161L116.436 41.5307C116.242 41.5343 116.049 41.5575 115.86 41.6L115.343 41.7088C115.16 41.7567 115.003 41.8739 114.905 42.0354C114.813 42.1781 114.746 42.3354 114.706 42.5005L112.827 50.526C112.822 50.5721 112.822 50.6185 112.827 50.6646C112.823 50.7074 112.823 50.7505 112.827 50.7932C112.823 50.8935 112.847 50.9929 112.897 51.0802C112.955 51.1779 113.037 51.2596 113.135 51.3177C113.281 51.3839 113.435 51.4305 113.593 51.4563C113.776 51.4947 113.962 51.5211 114.15 51.5354L114.03 52.05H109.148L109.268 51.5354L109.974 51.4761C110.178 51.4651 110.38 51.4217 110.57 51.3474C110.736 51.2589 110.884 51.1416 111.008 51.0011C111.122 50.8651 111.198 50.701 111.226 50.526L113.155 42.3125H113.066L106.991 51.862H106.623L105.231 42.1145H105.152L103.581 48.8932C103.511 49.1703 103.461 49.4375 103.422 49.6948C103.386 49.9042 103.367 50.1159 103.362 50.3281C103.34 50.4724 103.34 50.6193 103.362 50.7636C103.392 50.876 103.447 50.9806 103.521 51.0703C103.691 51.2171 103.897 51.3162 104.118 51.3573C104.349 51.4295 104.585 51.4889 104.824 51.5354L104.694 52.05H100.21L100.339 51.5354L101.075 51.4266C101.315 51.3776 101.543 51.2871 101.751 51.1594C101.99 50.9848 102.175 50.7487 102.288 50.4766C102.48 49.9929 102.626 49.4927 102.726 48.9823L104.058 43.2625C104.086 43.1552 104.106 43.0461 104.118 42.9359C104.122 42.8403 104.122 42.7445 104.118 42.6489C104.12 42.5081 104.1 42.3678 104.058 42.2333C104.019 42.1312 103.962 42.0372 103.889 41.9562C103.743 41.7984 103.552 41.6881 103.342 41.6396C103.135 41.5778 102.922 41.5413 102.706 41.5307L102.825 41.0161H106.563L107.776 49.3089L112.081 42.3817C112.241 42.1245 112.39 41.8474 112.529 41.5703C112.616 41.3972 112.693 41.2187 112.758 41.0359L116.556 41.0161Z" fill="#767676"/>
<path d="M73.6765 58.2728C74.0885 57.8254 74.6878 57.0301 75.0749 56.5454H70.5425C68.6622 58.1599 66.2452 59.0194 63.7627 58.9563C61.294 58.9382 58.9043 58.0884 56.9829 56.5454H52.7128C53.0633 57.0782 53.447 57.5887 53.8615 58.074L52.2258 61.1187L55.16 63.3059L57.5448 60.9944C58.7673 61.6048 60.077 62.0239 61.4279 62.2371L61.9772 65.6422H65.6481L66.185 62.262C67.4723 62.0492 68.7163 61.6295 69.8683 61.0192L72.3654 63.4426L75.2996 61.2554L73.6765 58.2728Z" fill="#767676" stroke="white" stroke-width="0.25" stroke-linecap="round" stroke-linejoin="round"/>
<path d="M73.6765 33.7283C74.0885 34.1757 74.6878 34.9711 75.0749 35.4681H70.5425C68.6622 33.8536 66.2452 32.9941 63.7627 33.0572C61.294 33.0753 58.9043 33.9252 56.9829 35.4681H52.7128C53.0633 34.9314 53.447 34.4167 53.8615 33.9272L52.2258 30.8824L55.16 28.6952L57.5448 31.0067C58.7673 30.3964 60.077 29.9772 61.4279 29.764L61.9772 26.3589H65.6481L66.185 29.7391C67.4722 29.9523 68.7161 30.372 69.8683 30.9819L72.3654 28.4964L75.2996 30.6836L73.6765 33.7283Z" fill="#767676" stroke="white" stroke-width="0.25" stroke-linecap="round" stroke-linejoin="round"/>
<path d="M82.5914 57.0669H127.016V59.8382H84.9886C79.8944 67.2077 72.2781 71.8306 63.7628 71.8306C55.2474 71.8306 47.5936 67.4686 42.5369 59.8507H0.9841V57.0669H44.8343C49.3666 64.6352 55.9466 68.8978 63.7128 68.8978C71.479 68.8978 78.034 64.3991 82.5914 57.0669Z" fill="#767676" stroke="white" stroke-width="0.25" stroke-linecap="round" stroke-linejoin="round"/>
<path d="M82.5913 34.9461H118.476V32.1748H84.9886C79.8944 24.7929 72.2781 20.1699 63.7628 20.1699C55.2474 20.1699 47.5936 24.532 42.5369 32.15H9.61179V34.9088H44.9217C49.454 27.3281 56.034 23.0655 63.8002 23.0655C71.5664 23.0655 78.034 27.6139 82.5913 34.9461Z" fill="#767676" stroke="white" stroke-width="0.25" stroke-linecap="round" stroke-linejoin="round"/>
<path d="M87.5357 74.08C89.3201 72.1794 90.898 70.0967 92.2429 67.8663H100.983L102.706 63.8149H85.5255C83.2179 67.463 80.0188 70.4693 76.2271 72.5529C72.4355 74.6364 68.175 75.7293 63.8439 75.7293C59.5127 75.7293 55.2523 74.6364 51.4606 72.5529C47.669 70.4693 44.4699 67.463 42.1623 63.8149H24.7945L26.5176 67.8663H36.0942C37.2749 69.898 38.6372 71.8196 40.1646 73.6077L36.2315 80.915L43.2735 86.147L48.9671 80.6044C51.8894 82.116 55.0327 83.1602 58.2815 83.6988L59.53 91.8636H68.2701L69.5187 83.7734C72.5963 83.285 75.5762 82.3118 78.3462 80.8902L84.3893 86.7186L91.4313 81.4743L87.4233 74.0924L87.5357 74.08Z" fill="#CC2222" stroke="#CC2222" stroke-width="0.25" stroke-linecap="round" stroke-linejoin="round"/>
<path d="M87.5357 17.933C89.3255 19.8291 90.9037 21.9124 92.2429 24.1467H100.983L102.706 28.1856H85.5255C83.2157 24.5404 80.0159 21.5368 76.2245 19.4553C72.4331 17.3738 68.1738 16.2822 63.8439 16.2822C59.514 16.2822 55.2546 17.3738 51.4633 19.4553C47.6719 21.5368 44.472 24.5404 42.1623 28.1856H24.7945L26.5176 24.1467H36.0942C37.2718 22.1092 38.6342 20.1832 40.1646 18.3928L36.2315 11.0855L43.2735 5.85358L48.9671 11.3962C51.8918 9.89002 55.0342 8.84607 58.2815 8.30178L59.53 0.149414H68.2701L69.5187 8.22722C72.5949 8.72127 75.5739 9.69424 78.3462 11.1104L84.3893 5.29434L91.4313 10.5263L87.4233 17.9827L87.5357 17.933Z" fill="#CC2222" stroke="#CC2222" stroke-width="0.25" stroke-linecap="round" stroke-linejoin="round"/>
</svg>
