<svg width="31" height="35" viewBox="0 0 31 35" fill="none" xmlns="http://www.w3.org/2000/svg">
<path d="M31 13.1726V28.9748C31 30.3718 30.4843 31.7116 29.5664 32.6994C28.6484 33.6872 27.4034 34.2422 26.1053 34.2422H4.89474C3.59657 34.2422 2.35158 33.6872 1.43364 32.6994C0.515694 31.7116 0 30.3718 0 28.9748V13.1726C0 11.2236 0.983842 9.52051 2.44737 8.61101L2.44247 8.60399L15.4967 0.492188L28.5608 8.60925L28.5592 8.61452C29.3016 9.07728 29.918 9.742 30.3464 10.542C30.7748 11.342 31.0002 12.2492 31 13.1726ZM2.80142 10.4792L15.5 19.353L28.1986 10.4792L15.4967 2.52014L2.80142 10.4792ZM15.5 21.4459L1.85021 11.9084C1.70547 12.3117 1.63134 12.7403 1.63158 13.1726V28.9748C1.63158 29.9061 1.97537 30.7993 2.58734 31.4579C3.1993 32.1164 4.02929 32.4864 4.89474 32.4864H26.1053C26.9707 32.4864 27.8007 32.1164 28.4127 31.4579C29.0246 30.7993 29.3684 29.9061 29.3684 28.9748V13.1726C29.3684 12.7266 29.2917 12.2999 29.1498 11.9084L15.5 21.4442V21.4459Z" fill="#EBEBEB"/>
</svg>
