<svg width="36" height="36" viewBox="0 0 36 36" fill="none" xmlns="http://www.w3.org/2000/svg">
<path d="M23.625 1.125H12.375C10.511 1.125 9 2.63604 9 4.5V31.5C9 33.364 10.511 34.875 12.375 34.875H23.625C25.489 34.875 27 33.364 27 31.5V4.5C27 2.63604 25.489 1.125 23.625 1.125Z" stroke="#EBEBEB" stroke-linecap="round" stroke-linejoin="round"/>
<path d="M12.375 1.125H14.0625C14.2117 1.125 14.3548 1.18426 14.4602 1.28975C14.5657 1.39524 14.625 1.53832 14.625 1.6875C14.625 1.98587 14.7435 2.27202 14.9545 2.483C15.1655 2.69397 15.4516 2.8125 15.75 2.8125H20.25C20.5484 2.8125 20.8345 2.69397 21.0455 2.483C21.2565 2.27202 21.375 1.98587 21.375 1.6875C21.375 1.53832 21.4343 1.39524 21.5398 1.28975C21.6452 1.18426 21.7883 1.125 21.9375 1.125H23.625" stroke="#EBEBEB" stroke-linecap="round" stroke-linejoin="round"/>
</svg>
