<svg width="34" height="30" viewBox="0 0 34 30" fill="none" xmlns="http://www.w3.org/2000/svg">
<path d="M14.0057 21.5V19.875H2.61136L2.59506 26.375C2.59506 28.1788 4.04584 29.625 5.85525 29.625H28.6766C30.486 29.625 31.9368 28.1788 31.9368 26.375V19.875H20.5261V21.5H14.0057ZM30.3067 6.875H23.77V3.625L20.5098 0.375H13.9894L10.7292 3.625V6.875H4.22515C2.43205 6.875 0.964966 8.3375 0.964966 10.125V15C0.964966 16.8038 2.41575 18.25 4.22515 18.25H14.0057V15H20.5261V18.25H30.3067C32.0998 18.25 33.5669 16.7875 33.5669 15V10.125C33.5669 8.3375 32.0998 6.875 30.3067 6.875ZM20.5261 6.875H14.0057V3.625H20.5261V6.875Z" fill="#EBEBEB"/>
</svg>
