<svg width="26" height="25" viewBox="0 0 26 25" fill="none" xmlns="http://www.w3.org/2000/svg">
<path fill-rule="evenodd" clip-rule="evenodd" d="M8.05558 2.48225C6.28751 2.89155 4.53091 3.33673 2.78725 3.81743C2.62945 3.85938 2.48859 3.9388 2.38087 4.04659C2.27314 4.15437 2.20291 4.28614 2.17825 4.42675C1.14778 10.9146 3.52578 15.6493 6.36198 18.7675C7.78491 20.3324 9.32578 21.4912 10.6095 22.252C11.2533 22.6316 11.8198 22.9079 12.2664 23.0844C12.4906 23.1726 12.6724 23.2326 12.8116 23.2675C12.873 23.2845 12.9356 23.2979 12.9991 23.3075C13.0126 23.3058 13.0726 23.2991 13.1866 23.2692C13.3258 23.2326 13.5076 23.1726 13.7318 23.0844C14.1765 22.9079 14.7468 22.6316 15.3887 22.252C16.9984 21.2794 18.4301 20.1049 19.6362 18.7675C22.4724 15.6493 24.8504 10.9146 23.82 4.42675C23.7953 4.28614 23.7251 4.15437 23.6174 4.04659C23.5096 3.9388 23.3688 3.85938 23.211 3.81743C22.0007 3.48447 19.9591 2.94174 17.9426 2.48225C15.8817 2.01443 13.9851 1.66482 12.9991 1.66482C12.0131 1.66482 10.1184 2.01443 8.05558 2.48225ZM7.56065 0.87403C9.57711 0.41454 11.7173 0 12.9991 0C14.279 0 16.4211 0.41454 18.4376 0.87403C20.2362 1.28986 22.0231 1.74226 23.7968 2.23086C24.8176 2.51055 25.587 3.26804 25.7359 4.202C26.8437 11.1893 24.2743 16.3668 21.1597 19.793C19.8324 21.2634 18.2567 22.5541 16.4849 23.6221C15.8689 23.9937 15.2176 24.3201 14.538 24.5977C14.016 24.8041 13.4592 24.9723 12.9991 24.9723C12.539 24.9723 11.9822 24.8041 11.4602 24.5977C10.7805 24.3203 10.1292 23.9939 9.51331 23.6221C7.74227 22.554 6.16715 21.2633 4.84045 19.793C1.72198 16.3668 -0.845487 11.1893 0.262313 4.202C0.336381 3.74929 0.557817 3.3239 0.900991 2.97506C1.24417 2.62622 1.69505 2.3682 2.20145 2.23086C3.97518 1.74227 5.76208 1.28987 7.56065 0.87403Z" fill="#696969"/>
<path d="M12.999 2.91357C14.7564 2.91357 19.1625 4.05397 21.2234 4.61501C21.5555 4.7027 21.8515 4.87053 22.0763 5.0986C22.3011 5.32668 22.4452 5.60546 22.4917 5.90191C24.0654 16.5967 14.507 21.6377 12.999 21.6377V2.91357Z" fill="#696969"/>
</svg>
