<svg width="45" height="45" viewBox="0 0 45 45" fill="none" xmlns="http://www.w3.org/2000/svg">
<path d="M22.5 5.625C33.3731 5.625 42.1875 12.495 42.1875 20.9719C42.1875 29.4469 33.3731 36.3169 22.5 36.3169C21.4173 36.3174 20.3357 36.2486 19.2619 36.1106L10.9969 41.5162C10.0575 42.0131 9.72563 41.9587 10.1119 40.7419L11.7844 33.8456C6.38437 31.1081 2.8125 26.3644 2.8125 20.9719C2.8125 12.4969 11.6269 5.625 22.5 5.625ZM33.5756 20.7375L36.3319 18.0675C36.4909 17.9023 36.5796 17.6819 36.5794 17.4526C36.5791 17.2233 36.4898 17.0031 36.3304 16.8383C36.171 16.6735 35.9538 16.577 35.7246 16.5692C35.4955 16.5613 35.2722 16.6427 35.1019 16.7962L31.4869 20.295V17.4037C31.4869 17.169 31.3936 16.9439 31.2277 16.778C31.0617 16.612 30.8366 16.5188 30.6019 16.5188C30.3672 16.5188 30.1421 16.612 29.9761 16.778C29.8101 16.9439 29.7169 17.169 29.7169 17.4037V22.1981C29.6837 22.3349 29.6837 22.4776 29.7169 22.6144V25.3125C29.7169 25.5472 29.8101 25.7723 29.9761 25.9383C30.1421 26.1043 30.3672 26.1975 30.6019 26.1975C30.8366 26.1975 31.0617 26.1043 31.2277 25.9383C31.3936 25.7723 31.4869 25.5472 31.4869 25.3125V22.7569L32.2875 21.9825L34.965 25.7944C35.0319 25.8895 35.1168 25.9706 35.215 26.0329C35.3132 26.0953 35.4227 26.1377 35.5372 26.1577C35.6518 26.1777 35.7692 26.175 35.8827 26.1496C35.9962 26.1243 36.1036 26.0768 36.1987 26.01C36.2939 25.9431 36.375 25.8582 36.4373 25.76C36.4997 25.6618 36.5421 25.5523 36.5621 25.4378C36.5821 25.3232 36.5794 25.2058 36.554 25.0923C36.5287 24.9788 36.4812 24.8714 36.4144 24.7762L33.5756 20.7356V20.7375ZM28.0294 24.345H25.2919V17.4319C25.2814 17.2044 25.1837 16.9898 25.019 16.8326C24.8544 16.6753 24.6355 16.5876 24.4078 16.5876C24.1801 16.5876 23.9612 16.6753 23.7966 16.8326C23.6319 16.9898 23.5342 17.2044 23.5237 17.4319V25.23C23.5237 25.7175 23.9175 26.115 24.4069 26.115H28.0294C28.2641 26.115 28.4892 26.0218 28.6552 25.8558C28.8211 25.6898 28.9144 25.4647 28.9144 25.23C28.9144 24.9953 28.8211 24.7702 28.6552 24.6042C28.4892 24.4382 28.2641 24.345 28.0294 24.345ZM17.0475 22.2975L18.3525 19.0969L19.5487 22.2975H17.0475ZM21.7781 23.2125L21.7819 23.1825C21.7814 22.9595 21.6963 22.7451 21.5437 22.5825L19.5825 17.3325C19.5003 17.0823 19.3437 16.8632 19.1336 16.7044C18.9235 16.5456 18.67 16.4546 18.4069 16.4438C18.1418 16.4426 17.8827 16.5222 17.664 16.6719C17.4453 16.8216 17.2773 17.0344 17.1825 17.2819L14.0681 24.9225C14.0242 25.0301 14.0018 25.1453 14.0024 25.2615C14.003 25.3778 14.0264 25.4927 14.0715 25.5999C14.1165 25.7071 14.1821 25.8043 14.2647 25.8861C14.3473 25.9679 14.4452 26.0326 14.5528 26.0766C14.6604 26.1205 14.7756 26.1428 14.8919 26.1423C15.0081 26.1417 15.1231 26.1182 15.2302 26.0732C15.3374 26.0282 15.4346 25.9625 15.5164 25.88C15.5982 25.7974 15.6629 25.6995 15.7069 25.5919L16.3256 24.0675H20.2069L20.7675 25.5675C20.8056 25.6796 20.8658 25.783 20.9446 25.8714C21.0234 25.9598 21.1191 26.0315 21.2261 26.0823C21.3331 26.133 21.4492 26.1618 21.5675 26.1668C21.6858 26.1719 21.804 26.1532 21.9149 26.1118C22.0259 26.0704 22.1274 26.0071 22.2134 25.9257C22.2995 25.8444 22.3683 25.7466 22.4159 25.6381C22.4634 25.5297 22.4888 25.4128 22.4903 25.2944C22.4919 25.1759 22.4697 25.0584 22.425 24.9487L21.7781 23.2125ZM15.5494 17.4412C15.5494 17.2069 15.4564 16.982 15.2908 16.8161C15.1253 16.6502 14.9006 16.5567 14.6663 16.5562H8.58188C8.34716 16.5562 8.12206 16.6495 7.95609 16.8155C7.79012 16.9814 7.69688 17.2065 7.69688 17.4412C7.69688 17.676 7.79012 17.9011 7.95609 18.067C8.12206 18.233 8.34716 18.3262 8.58188 18.3262H10.7569V25.3312C10.7569 25.566 10.8501 25.7911 11.0161 25.957C11.1821 26.123 11.4072 26.2162 11.6419 26.2162C11.8766 26.2162 12.1017 26.123 12.2677 25.957C12.4336 25.7911 12.5269 25.566 12.5269 25.3312V18.3262H14.6644C14.8991 18.3262 15.1242 18.233 15.2902 18.067C15.4561 17.9011 15.5494 17.676 15.5494 17.4412Z" fill="#696969"/>
</svg>
