<svg width="33" height="29" viewBox="0 0 33 29" fill="none" xmlns="http://www.w3.org/2000/svg">
<path d="M5.8472 0.888672C2.60805 0.888672 0 3.10157 0 5.84993V23.9274C0 26.6758 2.60805 28.8887 5.8472 28.8887H21.5284L33 14.8922L21.5284 0.8887L5.8472 0.888672ZM14.6283 6.00043H18.3542C18.5829 6.00043 18.7141 6.07141 18.7141 6.23843V23.6614C18.7141 23.78 18.6482 23.8513 18.4521 23.8513H16.4257C16.2959 23.8513 16.1978 23.7562 16.1978 23.685V17.2345H14.5623L10.0196 23.685C9.95441 23.8037 9.82386 23.8513 9.62774 23.8513H7.30741C7.04671 23.8513 6.88323 23.685 7.04652 23.4706L12.046 16.9012C9.36684 16.0443 7.86327 14.3068 7.86327 11.9504C7.86327 8.02301 10.9683 6.00043 14.6283 6.00043ZM14.5303 7.52293C12.5367 7.52293 10.5755 8.73678 10.5755 11.7124C10.5755 14.5687 12.6673 15.7112 14.8242 15.7112H16.1978V7.52293H14.5303Z" fill="#EBEBEB"/>
</svg>
